<?xml version="1.0" encoding="UTF-8" standalone="no"?><!DOCTYPE svg PUBLIC "-//W3C//DTD SVG 1.1//EN" "http://www.w3.org/Graphics/SVG/1.1/DTD/svg11.dtd"><svg width="100%" height="100%" viewBox="0 0 25 25" version="1.1" xmlns="http://www.w3.org/2000/svg" xmlns:xlink="http://www.w3.org/1999/xlink" xml:space="preserve" style="fill-rule:evenodd;clip-rule:evenodd;stroke-miterlimit:10;"><path d="M21.019,12.095c0,4.929 -3.995,8.924 -8.924,8.924c-4.929,0 -8.924,-3.995 -8.924,-8.924c0,-4.929 3.995,-8.924 8.924,-8.924c4.929,0 8.924,3.995 8.924,8.924l0,0Z" style="fill:none;stroke:#414141;stroke-width:0.63px;"/><path d="M6.301,8.042c0,0 1.252,-2.036 2.215,-2.702c0,0 2.318,0.051 3.201,0.427c0,0 -0.072,2.718 -0.127,3.191l-3.466,1.404c0,0 -1.222,-1.094 -1.823,-2.32" style="fill:#414141;fill-rule:nonzero;stroke:#414141;stroke-width:1px;stroke-linejoin:round;stroke-miterlimit:1.41421;"/><path d="M8.342,4.055l0.141,1.054" style="fill:none;stroke:#414141;stroke-width:0.48px;"/><path d="M3.386,10.012c0,0 1.907,-1.845 3.032,-2.179" style="fill:none;stroke:#414141;stroke-width:0.48px;"/><path d="M11.489,5.545c0,0 2.473,-0.91 4.108,-0.928" style="fill:none;stroke:#414141;stroke-width:0.48px;"/><path d="M14.985,3.957c0,0 0.117,0.701 0.4,0.967l2.751,2.118c0,0 0.618,-0.033 0.884,-0.167c0,0 -1.2,-2.034 -4.018,-3.017l-0.017,0.099l0,0Z" style="fill:#414141;fill-rule:nonzero;stroke:#414141;stroke-width:1px;stroke-linejoin:round;stroke-miterlimit:1.41421;"/><path d="M3.158,12.807c0,0 1.51,2.555 2.34,3.082" style="fill:none;stroke:#414141;stroke-width:0.48px;"/><path d="M5.386,15.605c0,0 1.089,-0.869 2.216,-1.419l3.315,2.423l-0.746,2.618c0,0 -1.064,0.356 -3.169,-0.673c0,0 -1.481,-1.872 -1.616,-2.949" style="fill:#414141;fill-rule:nonzero;stroke:#414141;stroke-width:1px;stroke-linejoin:round;stroke-miterlimit:1.41421;"/><path d="M6.659,19.151l0.316,-0.316" style="fill:none;stroke:#414141;stroke-width:0.48px;"/><path d="M7.556,14.419c0,0 -0.171,-2.939 0.567,-4.191" style="fill:none;stroke:#414141;stroke-width:0.48px;"/><path d="M15.058,11.337l3.099,-1.011c0,0 1.254,1.964 1.543,3.104l-2.436,2.942l-2.628,-1.499l0.422,-3.536Z" style="fill:#414141;fill-rule:nonzero;stroke:#414141;stroke-width:1px;stroke-linejoin:round;stroke-miterlimit:1.41421;"/><path d="M11.839,8.817c0,0 2.056,0.844 3.203,2.583" style="fill:none;stroke:#414141;stroke-width:0.48px;"/><path d="M18.166,6.487c0,0 0.527,1.764 0.158,3.609" style="fill:none;stroke:#414141;stroke-width:0.48px;"/><path d="M10.355,16.778c0,0 2.143,-0.25 4.279,-1.779" style="fill:none;stroke:#414141;stroke-width:0.48px;"/><path d="M10.165,19.269c0,0 1.133,1.147 3.124,1.503" style="fill:none;stroke:#414141;stroke-width:0.48px;"/><path d="M17.296,16.37c0,0 0.013,1.661 -0.474,2.768" style="fill:none;stroke:#414141;stroke-width:0.48px;"/><path d="M13.04,20.795c0.036,-0.012 1.813,-0.616 3.04,-1.084l0.571,-0.167c0,0 -1.362,0.526 -3.53,1.247l-0.081,0.004l0,0Z" style="fill:#097d3f;fill-rule:nonzero;stroke:#414141;stroke-width:1px;stroke-linejoin:round;stroke-miterlimit:1.41421;"/><path d="M19.945,13.378l0.936,0.013" style="fill:none;stroke:#414141;stroke-width:0.48px;"/></svg>