<?xml version="1.0" encoding="UTF-8" standalone="no"?><!DOCTYPE svg PUBLIC "-//W3C//DTD SVG 1.1//EN" "http://www.w3.org/Graphics/SVG/1.1/DTD/svg11.dtd"><svg width="100%" height="100%" viewBox="0 0 857 396" version="1.1" xmlns="http://www.w3.org/2000/svg" xmlns:xlink="http://www.w3.org/1999/xlink" xml:space="preserve" style="fill-rule:evenodd;clip-rule:evenodd;stroke-linejoin:round;stroke-miterlimit:1.41421;"><path d="M449.323,167.386l0,-96.522c0,-18.583 -13.19,-22.179 -19.783,-22.179c-6.595,0 -19.785,3.596 -19.785,22.179l0,96.522l-49.16,0l0,-96.522c0,-18.583 -13.187,-22.179 -19.782,-22.179c-6.595,0 -19.786,3.596 -19.786,22.179l0,96.522l-49.157,0l0,-161.266l47.961,0l0,13.185c9.89,-9.89 24.577,-14.983 37.467,-14.983c15.889,0 28.776,5.093 39.27,17.082c14.086,-12.289 26.976,-17.082 45.562,-17.082c15.285,0 29.975,5.093 38.668,13.786c13.789,13.791 17.685,29.075 17.685,46.161l0,103.117" style="fill:#f0535b;fill-rule:nonzero;"/><path d="M611.19,102.638l-24.878,0c-9.592,0 -15.589,5.398 -15.589,12.89c0,7.196 5.396,13.49 16.187,13.49c9.593,0 14.089,-0.901 19.485,-5.994c3.596,-3.3 4.795,-8.393 4.795,-16.19l0,-4.196Zm1.199,64.749l0,-13.19c-9.892,9.895 -18.884,14.687 -35.97,14.687c-16.187,0 -29.675,-5.393 -38.668,-14.387c-9.292,-9.294 -14.089,-22.78 -14.089,-37.768c0,-24.282 16.487,-46.761 54.856,-46.761l32.672,0l0,-4.196c0,-14.688 -7.193,-20.086 -24.28,-20.086c-12.589,0 -17.984,3 -25.779,10.792l-30.574,-30.577c16.485,-16.485 31.473,-21.578 58.752,-21.578c46.163,0 71.041,19.179 71.041,58.449l0,104.615l-47.961,0Z" style="fill:#f0535b;fill-rule:nonzero;"/><path d="M50.059,341.461c-35.672,0 -50.059,-25.479 -50.059,-47.663l0,-165.762l49.16,0l0,162.167c0,6.294 3.298,9.89 9.893,9.89l17.086,0l0,41.368l-26.08,0Z" style="fill:#f0535b;fill-rule:nonzero;"/><rect x="103.711" y="186.489" width="49.158" height="154.971" style="fill:#f0535b;fill-rule:nonzero;"/><path d="M252.686,222.76c-17.985,0 -19.184,15.584 -19.184,32.074c0,16.485 1.199,32.074 19.184,32.074c17.985,0 19.184,-15.589 19.184,-32.074c0,-16.49 -1.199,-32.074 -19.184,-32.074m-4.497,172.658c-25.178,0 -44.064,-4.497 -60.55,-20.982l30.574,-30.576c7.494,7.491 16.488,10.19 27.578,10.19c20.684,0 26.079,-14.086 26.079,-24.577l0,-11.693c-8.993,8.994 -19.785,13.49 -34.773,13.49c-15.586,0 -28.476,-5.097 -37.767,-14.387c-14.688,-14.692 -14.988,-32.674 -14.988,-62.049c0,-29.38 0.3,-47.362 14.988,-62.05c9.291,-9.294 22.481,-14.387 38.068,-14.387c16.487,0 26.079,5.093 35.97,14.983l0,-13.185l47.662,0l0,149.573c0,38.073 -28.776,65.65 -72.841,65.65" style="fill:#f0535b;fill-rule:nonzero;"/><path d="M405.857,180.195l0,96.517c0,18.588 13.188,22.184 19.783,22.184c6.595,0 19.785,-3.596 19.785,-22.184l0,-96.517l49.16,0l0,161.266l-47.961,0l0,-13.19c-9.892,9.895 -24.58,14.988 -37.469,14.988c-15.289,0 -27.578,-5.093 -36.271,-13.786c-13.788,-13.791 -16.187,-29.08 -16.187,-46.166l0,-103.112" style="fill:#f0535b;fill-rule:nonzero;"/><path d="M618.08,231.453c-3,-6.895 -9.592,-12.589 -21.282,-12.589c-11.691,0 -18.286,5.694 -21.285,12.589c-2.099,4.196 -2.697,8.693 -2.697,12.589l47.961,0c0,-3.896 -0.599,-8.393 -2.697,-12.589m-45.264,45.259c0,13.19 10.191,25.183 28.476,25.183c17.086,0 24.58,-4.797 33.273,-13.49l29.377,29.375c-16.487,16.485 -32.674,25.478 -62.65,25.478c-35.669,0 -76.737,-12.889 -76.737,-82.43c0,-52.756 29.976,-82.431 72.243,-82.431c46.761,0 72.538,34.167 72.538,76.437l0,21.878l-96.52,0Z" style="fill:#f0535b;fill-rule:nonzero;"/><path d="M154.525,142.063c0,14.489 -11.746,26.236 -26.236,26.236c-14.489,0 -26.235,-11.747 -26.235,-26.236c0,-14.489 11.746,-26.236 26.235,-26.236c14.49,0 26.236,11.747 26.236,26.236" style="fill:#237d3d;fill-rule:nonzero;"/><path d="M699.251,0c47.956,6.093 90.016,31.076 118.486,67.256c24.065,30.581 38.421,69.162 38.421,111.095c0,44.13 -15.899,84.547 -42.282,115.835c-28.498,33.796 -69.227,56.94 -115.362,62.608" style="fill:#33693f;fill-rule:nonzero;"/></svg>