<?xml version="1.0" encoding="UTF-8" standalone="no"?><!DOCTYPE svg PUBLIC "-//W3C//DTD SVG 1.1//EN" "http://www.w3.org/Graphics/SVG/1.1/DTD/svg11.dtd"><svg width="100%" height="100%" viewBox="0 0 134 85" version="1.1" xmlns="http://www.w3.org/2000/svg" xmlns:xlink="http://www.w3.org/1999/xlink" xml:space="preserve" style="fill-rule:evenodd;clip-rule:evenodd;stroke-miterlimit:10;"><path d="M89.235,35.2l0,-21.125c0,-4.312 -2.057,-5.146 -3.587,-5.146c-1.53,0 -3.899,0.834 -3.899,5.146l0,21.125l-8.767,0l0,-21.125c0,-4.312 -2.023,-5.146 -3.553,-5.146c-1.53,0 -3.5,0.749 -3.5,5.061l-0.054,21.21l-8.416,0l0,-35.122l8.484,0l0,3.607c0,0 1.103,-3.596 7.302,-3.596c0,0 5.44,-0.23 7.331,3.596c0,0 0.872,-3.597 7.41,-3.597c0,0 5.047,-0.447 7.407,3.181c0,0 3.316,3.391 2.785,10.707l0,21.224" style="fill:#ea3b3b;fill-rule:nonzero;"/><path d="M122.581,21.297l-6.041,0c-2.33,0 -3.786,1.325 -3.786,3.163c0,1.766 1.31,3.311 3.931,3.311c2.329,0 3.421,-0.221 4.732,-1.471c0.873,-0.81 1.164,-2.06 1.164,-3.973l0,-1.03Zm0.257,14.026l0,-2.858c-2.12,2.144 -4.048,3.182 -7.71,3.182c-3.47,0 -5.697,-1.168 -7.624,-3.116c-1.992,-2.014 -3.021,-4.935 -3.021,-8.182c0,-5.259 3.535,-10.129 11.759,-10.129l6.339,0l0,-0.909c0,-3.181 -1.542,-4.351 -5.204,-4.351c-2.699,0 -3.856,0.65 -5.526,2.338l-6.554,-6.624c3.534,-3.571 6.746,-4.674 12.594,-4.674c9.895,0 13.614,4.155 13.614,12.661l0,22.662l-8.667,0Z" style="fill:#ea3b3b;fill-rule:nonzero;"/><path d="M11.615,73.442c-8.277,0 -11.615,-5.083 -11.615,-10.231l0,-36.273l8.774,0l0,35.439c0,1.461 0.765,2.295 2.295,2.295l3.964,0l0,8.77l-3.418,0Z" style="fill:#ea3b3b;fill-rule:nonzero;"/><rect x="23.178" y="38.203" width="8.775" height="35.23" style="fill:#ea3b3b;fill-rule:nonzero;"/><path d="M52.067,47.98c-3.916,0 -4.176,3.393 -4.176,6.983c0,3.589 0.261,6.983 4.176,6.983c3.916,0 4.177,-3.394 4.177,-6.983c0,-3.59 -0.261,-6.983 -4.177,-6.983m-3.303,-9.751c3.825,0 6.051,1.182 8.346,3.477l0.001,-3.496l8.715,0l0.001,31.903c-0.722,8.915 -6.108,14.577 -16.331,14.577c-5.841,0 -7.195,-1.411 -11.401,-4.868l6.218,-6.439c1.738,1.738 3.825,2.364 6.398,2.364c4.799,0 6.051,-3.268 6.051,-5.703l0,-2.712c-2.087,2.086 -4.59,3.13 -8.068,3.13c0,0 -9.859,1.054 -9.859,-15.559c0,-17.126 9.929,-16.674 9.929,-16.674" style="fill:#ea3b3b;fill-rule:nonzero;"/><path d="M124.24,49.366c-0.752,-1.728 -2.404,-3.155 -5.334,-3.155c-2.93,0 -4.583,1.427 -5.335,3.155c-0.526,1.052 -0.676,2.179 -0.676,3.155l12.021,0c0,-0.976 -0.15,-2.103 -0.676,-3.155m-11.345,10.214c0,2.85 2.788,6.352 6.739,6.352c3.691,0 5.397,-0.809 7.969,-3.415l5.779,5.937c-3.563,3.562 -7.06,5.505 -13.537,5.505c-7.707,0 -15.771,-2.785 -15.771,-17.811c0,-11.399 5.667,-17.811 14.8,-17.811c10.103,0 14.995,7.383 14.995,16.516l0,4.727l-20.974,0Z" style="fill:#ea3b3b;fill-rule:nonzero;"/><path d="M36.495,26.938c0,4.929 -3.995,8.924 -8.924,8.924c-4.929,0 -8.924,-3.995 -8.924,-8.924c0,-4.929 3.995,-8.924 8.924,-8.924c4.929,0 8.924,3.995 8.924,8.924Z" style="fill:none;stroke:#097d3f;stroke-width:0.63px;"/><path d="M21.499,22.827c0,0 1.395,-2.345 2.482,-3.121c0,0 2.646,0.018 3.661,0.433c0,0 -0.037,3.103 -0.091,3.644l-3.932,1.66c0,0 -1.413,-1.227 -2.12,-2.616" style="fill:#097d3f;fill-rule:nonzero;"/><path d="M23.818,18.898l0.141,1.054" style="fill:none;stroke:#097d3f;stroke-width:0.48px;"/><path d="M18.863,24.856c0,0 1.907,-1.845 3.032,-2.179" style="fill:none;stroke:#097d3f;stroke-width:0.48px;"/><path d="M26.965,20.389c0,0 2.473,-0.91 4.108,-0.928" style="fill:none;stroke:#097d3f;stroke-width:0.48px;"/><path d="M30.461,18.635c0,0 0.123,0.738 0.422,1.019l2.899,2.232c0,0 0.651,-0.035 0.932,-0.176c0,0 -1.265,-2.144 -4.235,-3.18l-0.018,0.105Z" style="fill:#097d3f;fill-rule:nonzero;"/><path d="M18.634,27.65c0,0 1.51,2.555 2.34,3.082" style="fill:none;stroke:#097d3f;stroke-width:0.48px;"/><path d="M20.607,30.607c0,0 1.173,-0.936 2.386,-1.529l3.571,2.61l-0.804,2.82c0,0 -1.146,0.383 -3.413,-0.725c0,0 -1.595,-2.016 -1.74,-3.176" style="fill:#097d3f;fill-rule:nonzero;"/><path d="M22.136,33.994l0.316,-0.316" style="fill:none;stroke:#097d3f;stroke-width:0.48px;"/><path d="M23.032,29.262c0,0 -0.171,-2.939 0.567,-4.191" style="fill:none;stroke:#097d3f;stroke-width:0.48px;"/><path d="M30.221,25.822l3.569,-1.165c0,0 1.444,2.263 1.777,3.576l-2.805,3.388l-3.027,-1.727l0.486,-4.072Z" style="fill:#097d3f;fill-rule:nonzero;"/><path d="M27.316,23.661c0,0 2.056,0.844 3.203,2.583" style="fill:none;stroke:#097d3f;stroke-width:0.48px;"/><path d="M33.642,21.33c0,0 0.527,1.764 0.158,3.609" style="fill:none;stroke:#097d3f;stroke-width:0.48px;"/><path d="M25.831,31.622c0,0 2.143,-0.25 4.279,-1.779" style="fill:none;stroke:#097d3f;stroke-width:0.48px;"/><path d="M25.642,34.113c0,0 1.133,1.147 3.124,1.503" style="fill:none;stroke:#097d3f;stroke-width:0.48px;"/><path d="M32.772,31.213c0,0 0.013,1.661 -0.474,2.768" style="fill:none;stroke:#097d3f;stroke-width:0.48px;"/><path d="M28.462,35.444c0.044,0.002 2.233,-0.495 3.762,-1.681l0.693,0.284c0,0 -1.7,1.423 -4.363,1.766l-0.092,-0.369Z" style="fill:#097d3f;fill-rule:nonzero;"/><path d="M35.422,28.221l0.936,0.013" style="fill:none;stroke:#097d3f;stroke-width:0.48px;"/><path d="M73.05,59.906c0,0 0.469,13.435 9.036,13.435" style="fill:#ea3b3b;fill-rule:nonzero;"/><path d="M81.815,42.175l-0.095,18.559c0,3.622 2.776,4.323 3.984,4.323c1.207,0 3.622,-0.701 3.622,-4.323l0,-22.555l8.999,0l0,35.172l-8.78,0l0,-2.57c-1.811,1.928 -4.5,2.921 -6.859,2.921c-2.799,0 -5.049,-0.993 -6.64,-2.687c-2.524,-2.687 -2.964,-5.666 -2.964,-8.996l0,-20.094l0,-3.736l8.749,-0.01l0,3.75" style="fill:#ea3b3b;fill-rule:nonzero;"/></svg>