<?xml version="1.0" standalone="no"?>
<!DOCTYPE svg PUBLIC "-//W3C//DTD SVG 20010904//EN"
 "http://www.w3.org/TR/2001/REC-SVG-20010904/DTD/svg10.dtd">
<svg version="1.0" xmlns="http://www.w3.org/2000/svg"
 width="205.000000pt" height="205.000000pt" viewBox="0 0 205.000000 205.000000"
 preserveAspectRatio="xMidYMid meet">
<metadata>
Created by potrace 1.11, written by Peter Selinger 2001-2013
</metadata>
<g transform="translate(0.000000,205.000000) scale(0.100000,-0.100000)"
fill="#000000" stroke="none">
<path d="M881 1794 c-286 -59 -506 -251 -596 -519 -34 -99 -40 -147 -39 -270
7 -419 348 -757 769 -759 115 -1 154 5 246 33 267 83 468 307 531 591 15 65
17 234 4 295 -36 165 -98 287 -204 398 -102 107 -223 178 -368 218 -95 26
-251 32 -343 13z m248 -49 c30 -4 64 -10 75 -15 12 -4 26 -8 31 -9 49 -6 60
-41 15 -47 -55 -8 -174 -37 -206 -50 -19 -8 -46 -12 -62 -10 -57 10 -125 18
-176 21 -64 3 -74 8 -72 37 1 19 13 27 69 46 105 35 202 43 326 27z m-492
-193 c-34 -42 -73 -94 -85 -114 -13 -20 -32 -40 -42 -43 -11 -3 -53 -31 -95
-60 -74 -54 -75 -54 -59 -22 73 150 146 236 269 318 57 38 60 39 67 19 6 -16
-6 -37 -55 -98z m786 -1 c76 -59 107 -89 108 -104 0 -12 2 -31 5 -42 6 -31 6
-174 -1 -185 -3 -5 -64 -28 -135 -51 l-129 -42 -33 34 c-46 49 -115 102 -168
131 -42 23 -45 27 -43 64 0 21 1 80 2 130 1 86 2 92 24 98 90 26 137 38 172
42 22 4 41 8 43 9 14 13 65 -14 155 -84z m214 -133 c74 -110 113 -244 115
-382 0 -91 -7 -109 -41 -99 -18 5 -137 240 -133 263 5 30 3 220 -3 230 -3 6
-3 15 0 20 13 20 35 9 62 -32z m-1093 -100 c20 -33 41 -59 89 -110 16 -16 26
-36 23 -43 -23 -62 -34 -136 -35 -255 l-1 -75 -63 -38 c-34 -21 -70 -43 -80
-50 -16 -10 -23 -7 -48 23 -16 19 -52 67 -80 107 -44 65 -49 77 -51 130 0 32
2 87 7 123 6 54 13 69 39 94 43 41 159 126 171 126 6 0 19 -14 29 -32z m499
-59 c53 -27 111 -71 160 -121 32 -33 40 -46 39 -68 0 -15 -24 -221 -28 -240
-1 -8 -3 -22 -3 -32 -2 -27 -152 -104 -263 -133 l-48 -13 -121 86 -120 87 5
115 c3 63 11 137 18 164 l13 49 145 63 c80 34 149 63 153 63 4 1 27 -9 50 -20z
m697 -375 c0 -53 -75 -220 -136 -300 -36 -48 -133 -144 -145 -144 -3 0 0 23 7
51 7 27 14 71 15 97 3 61 6 67 115 198 77 92 98 112 119 110 14 0 25 -6 25
-12z m-1325 -164 c12 -14 28 -41 35 -60 7 -19 38 -73 67 -119 51 -78 52 -82
21 -56 -57 48 -130 147 -169 230 -55 117 -59 140 -14 80 21 -27 48 -61 60 -75z
m934 -27 c55 -31 98 -61 96 -67 -2 -6 -6 -32 -9 -57 -9 -84 -25 -127 -56 -149
-34 -24 -121 -64 -199 -91 -52 -18 -58 -18 -110 -3 -55 16 -123 49 -166 82
-18 13 -21 22 -14 42 4 14 17 57 28 97 l21 71 57 18 c31 10 98 39 147 65 50
25 95 47 99 48 4 0 52 -24 106 -56z m-646 -294 c33 -11 83 -19 112 -19 42 0
64 -7 111 -35 32 -19 61 -35 66 -35 4 0 8 -4 8 -8 0 -11 -109 4 -180 24 -59
17 -156 62 -193 90 -19 14 -20 16 -2 9 11 -4 46 -16 78 -26z"/>
</g>
</svg>
